HIERARCHY
ROOT Hips
{
	OFFSET -0.001795 -0.223333 0.028219
	CHANNELS 6 Xposition Yposition Zposition Zrotation Yrotation Xrotation 
	JOINT LeftUpLeg
	{
		OFFSET 0.069520 -0.091406 -0.006815
		CHANNELS 3 Zrotation Yrotation Xrotation
		JOINT LeftLeg
		{
			OFFSET 0.034277 -0.375199 -0.004496
			CHANNELS 3 Zrotation Yrotation Xrotation
			JOINT LeftFoot
			{
				OFFSET -0.013596 -0.397961 -0.043693
				CHANNELS 3 Zrotation Yrotation Xrotation
				JOINT LeftToe
				{
					OFFSET 0.026358 -0.055791 0.119288
					CHANNELS 3 Zrotation Yrotation Xrotation
					End Site
					{
						OFFSET 0.000000 0.000000 0.000000
					}
				}
			}
		}
	}
	JOINT RightUpLeg
	{
		OFFSET -0.067670 -0.090522 -0.004320
		CHANNELS 3 Zrotation Yrotation Xrotation
		JOINT RightLeg
		{
			OFFSET -0.038290 -0.382569 -0.008850
			CHANNELS 3 Zrotation Yrotation Xrotation
			JOINT RightFoot
			{
				OFFSET 0.015774 -0.398415 -0.042312
				CHANNELS 3 Zrotation Yrotation Xrotation
				JOINT RightToe
				{
					OFFSET -0.025372 -0.048144 0.123348
					CHANNELS 3 Zrotation Yrotation Xrotation
					End Site
					{
						OFFSET 0.000000 0.000000 0.000000
					}
				}
			}
		}
	}
	JOINT Spine
	{
		OFFSET -0.002533 0.108963 -0.026696
		CHANNELS 3 Zrotation Yrotation Xrotation
		JOINT Spine1
		{
			OFFSET 0.005487 0.135180 0.001092
			CHANNELS 3 Zrotation Yrotation Xrotation
			JOINT Spine2
			{
				OFFSET 0.001457 0.052922 0.025425
				CHANNELS 3 Zrotation Yrotation Xrotation
				JOINT Neck
				{
					OFFSET -0.002778 0.213870 -0.042857
					CHANNELS 3 Zrotation Yrotation Xrotation
					JOINT Head
					{
						OFFSET 0.005152 0.064970 0.051349
						CHANNELS 3 Zrotation Yrotation Xrotation
						End Site
						{
							OFFSET 0.000000 0.000000 0.000000
						}
					}
				}
				JOINT LeftShoulder
				{
					OFFSET 0.078845 0.121749 -0.034090
					CHANNELS 3 Zrotation Yrotation Xrotation
					JOINT LeftArm
					{
						OFFSET 0.090977 0.030469 -0.008868
						CHANNELS 3 Zrotation Yrotation Xrotation
						JOINT LeftForeArm
						{
							OFFSET 0.259612 -0.012772 -0.027456
							CHANNELS 3 Zrotation Yrotation Xrotation
							JOINT LeftHand
							{
								OFFSET 0.249234 0.008986 -0.001171
								CHANNELS 3 Zrotation Yrotation Xrotation
								End Site
								{
									OFFSET 0.000000 0.000000 0.000000
								}
							}
						}
					}
				}
				JOINT RightShoulder
				{
					OFFSET -0.081759 0.118833 -0.038615
					CHANNELS 3 Zrotation Yrotation Xrotation
					JOINT RightArm
					{
						OFFSET -0.096012 0.032551 -0.009143
						CHANNELS 3 Zrotation Yrotation Xrotation
						JOINT RightForeArm
						{
							OFFSET -0.253742 -0.013329 -0.021401
							CHANNELS 3 Zrotation Yrotation Xrotation
							JOINT RightHand
							{
								OFFSET -0.255298 0.007772 -0.005559
								CHANNELS 3 Zrotation Yrotation Xrotation
								End Site
								{
									OFFSET 0.000000 0.000000 0.000000
								}
							}
						}
					}
				}
			}
		}
	}
}
MOTION
Frames: 12
Frame Time: 0.050000
-0.044846 0.960709 -0.105224 3.976276 -1.114291 13.818177 6.926979 -0.640362 -11.536202 1.821313 0.161959 -6.984666 2.298484 11.548226 30.110787 0.000000 0.000000 0.000000 -1.399106 1.926937 -20.908748 -6.412653 0.954121 3.240347 3.097737 2.782013 8.348817 0.000000 0.000000 0.000000 6.811012 -1.783389 14.214367 9.177471 -4.783780 4.961241 -7.184205 3.434253 4.598874 16.065269 -17.062383 10.404141 0.000000 0.000000 0.000000 20.024710 -29.302787 7.001052 -14.247021 -50.359905 1.552264 7.398564 -54.566975 -2.067137 0.000000 0.000000 0.000000 -0.256260 15.262414 5.710563 37.217560 28.635463 4.742135 -1.684834 30.420580 0.895988 0.000000 0.000000 0.000000 
-0.045258 0.960645 -0.106302 4.159355 -0.721487 14.064028 6.895077 -0.676197 -12.258249 1.906346 0.123427 -6.310702 1.586764 10.730814 29.672333 0.000000 0.000000 0.000000 -1.347377 1.957905 -21.335010 -6.832656 1.038782 3.522991 2.912756 2.442970 8.329872 0.000000 0.000000 0.000000 6.906471 -1.864777 14.686441 9.521110 -5.040262 5.510304 -7.458239 4.106443 4.589900 16.473031 -17.538209 10.231738 0.000000 0.000000 0.000000 21.199431 -29.601160 6.959266 -11.146704 -50.721787 0.162644 10.695748 -54.241060 -3.888794 0.000000 0.000000 0.000000 0.358480 15.524777 5.949399 36.130199 29.550157 4.814027 -1.960300 30.440617 0.873791 0.000000 0.000000 0.000000 
-0.045689 0.960441 -0.107095 4.491553 -0.361841 14.381525 6.757500 -0.714143 -12.739957 1.646663 0.135357 -6.278136 1.360499 10.524435 29.583647 0.000000 0.000000 0.000000 -1.529601 1.923866 -21.388484 -7.134238 1.028821 3.031582 2.770059 2.143163 8.409073 0.000000 0.000000 0.000000 7.084168 -1.995354 15.465334 9.488743 -5.013932 5.369913 -7.439836 4.749703 4.854055 16.924570 -17.948592 9.826412 0.000000 0.000000 0.000000 21.102497 -30.021700 7.114109 -9.143514 -50.624317 -0.789612 12.835561 -54.989813 -5.187289 0.000000 0.000000 0.000000 0.964085 15.678082 6.158290 35.241414 29.866004 4.701557 -2.313485 30.229570 0.815217 0.000000 0.000000 0.000000 
-0.045961 0.960455 -0.107634 4.795402 -0.036882 14.461962 6.721584 -0.739610 -13.149071 1.651938 0.116875 -5.898086 0.371107 9.439271 29.618019 0.000000 0.000000 0.000000 -1.799142 1.868387 -21.302338 -7.218154 1.014737 2.775303 2.628659 1.870654 8.435070 0.000000 0.000000 0.000000 7.042828 -2.070273 16.148855 9.890239 -5.212826 5.202230 -7.515616 5.750200 4.901171 18.066764 -18.739866 8.659580 0.000000 0.000000 0.000000 21.221832 -30.392413 7.268979 -8.138082 -50.408019 -1.422290 14.174385 -56.946993 -6.362088 0.000000 0.000000 0.000000 1.150481 16.187217 6.482793 34.528632 29.455312 4.449571 -2.892218 29.824450 0.699687 0.000000 0.000000 0.000000 
-0.045923 0.959996 -0.107925 5.105101 0.456473 14.600921 6.379592 -0.783195 -13.269923 1.574761 0.136096 -6.192200 0.380249 9.537049 29.539585 0.000000 0.000000 0.000000 -2.139345 1.776626 -20.953585 -7.219873 0.940773 2.033605 2.416571 1.475193 8.449562 0.000000 0.000000 0.000000 7.586375 -2.263292 16.726740 9.865865 -5.227676 5.282280 -7.735409 6.605558 4.892108 19.447291 -19.273883 6.607970 0.000000 0.000000 0.000000 21.143337 -30.538995 7.417238 -8.019741 -50.132321 -1.687838 15.387761 -60.408304 -7.805364 0.000000 0.000000 0.000000 0.750741 16.411217 6.595089 33.894314 28.909932 4.219386 -3.668780 28.568373 0.498013 0.000000 0.000000 0.000000 
-0.045553 0.960054 -0.108160 5.612910 0.876153 14.736380 5.884283 -0.838653 -13.497439 1.681834 0.126663 -6.091096 -0.313856 8.751026 29.236927 0.000000 0.000000 0.000000 -2.939013 1.644819 -20.811764 -6.836914 0.861997 1.672619 2.200168 1.072734 8.455336 0.000000 0.000000 0.000000 7.788686 -2.384990 17.292508 9.832783 -5.163705 4.831026 -7.543806 7.252996 5.289046 20.587924 -19.694540 4.952350 0.000000 0.000000 0.000000 20.789527 -30.853220 7.572493 -7.661621 -50.584955 -2.014124 16.486941 -62.296901 -8.921266 0.000000 0.000000 0.000000 0.408325 16.934278 6.803276 33.752669 28.070935 3.957293 -4.538694 28.132694 0.305463 0.000000 0.000000 0.000000 
-0.045010 0.959941 -0.108430 6.202610 1.854580 14.782471 5.497957 -0.904687 -13.858842 1.313346 0.137571 -5.918338 -0.885427 8.240389 29.078352 0.000000 0.000000 0.000000 -3.739486 1.472810 -20.335803 -6.590416 0.787510 1.130683 1.746659 0.247532 8.427736 0.000000 0.000000 0.000000 8.011711 -2.481462 17.409984 10.023741 -5.308939 4.901186 -7.554304 7.332911 5.221993 21.175873 -19.587350 3.531102 0.000000 0.000000 0.000000 20.447133 -30.796923 7.672395 -7.441812 -51.959301 -2.283038 18.454489 -62.971509 -10.318390 0.000000 0.000000 0.000000 -0.005026 17.211583 6.873172 33.331493 26.982134 3.613170 -4.969304 27.275353 0.196125 0.000000 0.000000 0.000000 
-0.044512 0.960274 -0.108822 6.614943 2.569455 14.823398 5.293720 -0.932216 -13.796625 1.230237 0.143547 -5.955942 -1.994163 6.853886 28.272785 0.000000 0.000000 0.000000 -4.365899 1.332588 -19.751926 -6.307854 0.683240 0.300232 1.466520 -0.348847 8.658767 0.000000 0.000000 0.000000 7.898879 -2.467559 17.313114 10.108734 -5.346033 4.658238 -7.002080 7.740036 5.419608 22.497757 -19.632544 1.035038 0.000000 0.000000 0.000000 20.180011 -30.797692 7.756485 -6.448632 -54.215271 -2.990954 19.941610 -61.624264 -10.942075 0.000000 0.000000 0.000000 -0.058215 17.394114 6.969720 32.636230 25.982585 3.222409 -5.252726 26.723951 0.134507 0.000000 0.000000 0.000000 
-0.044156 0.960601 -0.109284 6.975824 3.940239 14.681125 5.332416 -0.970256 -14.056023 0.854717 0.154273 -5.787658 -3.181760 5.725081 28.443137 0.000000 0.000000 0.000000 -4.915736 1.174000 -18.956451 -5.976305 0.606550 -0.274238 0.893118 -1.436922 8.798686 0.000000 0.000000 0.000000 8.235247 -2.598084 17.435807 10.605887 -5.656654 4.662676 -7.177820 7.723046 4.873427 22.679063 -19.323114 0.115674 0.000000 0.000000 0.000000 19.693208 -31.195469 7.960910 -4.552165 -56.429977 -4.152167 21.695914 -58.172231 -11.158605 0.000000 0.000000 0.000000 -0.278329 17.814872 7.132909 32.098951 24.864563 2.907619 -5.179986 26.349888 0.143763 0.000000 0.000000 0.000000 
-0.043937 0.960854 -0.109708 7.196043 4.545858 14.599620 5.296546 -0.980342 -13.980978 0.790917 0.162108 -5.923765 -4.013765 4.832292 28.457918 0.000000 0.000000 0.000000 -5.216195 1.098280 -18.598120 -5.850737 0.578117 -0.505272 0.640122 -1.922997 8.891217 0.000000 0.000000 0.000000 8.193344 -2.597492 17.378164 10.686691 -5.684830 4.424636 -6.672005 8.064269 4.964650 24.151577 -19.746115 -1.739186 0.000000 0.000000 0.000000 19.635954 -31.041281 7.990633 -2.861655 -58.412608 -5.342964 22.584589 -55.149649 -10.907384 0.000000 0.000000 0.000000 -0.512083 17.843574 7.119017 31.855950 24.132796 2.697848 -5.254086 25.504901 0.120589 0.000000 0.000000 0.000000 
-0.043668 0.960483 -0.109992 7.292571 5.274795 14.466867 5.259039 -1.001221 -14.083573 0.886865 0.149045 -5.704917 -4.677040 4.099606 28.251873 0.000000 0.000000 0.000000 -5.474787 1.024749 -18.216513 -5.545494 0.542960 -0.626995 0.305366 -2.501504 8.798297 0.000000 0.000000 0.000000 8.395512 -2.598680 16.913925 10.530162 -5.614690 4.309365 -6.363440 8.105642 4.968284 24.241520 -19.776583 -1.881095 0.000000 0.000000 0.000000 18.787303 -30.786819 8.086804 -2.069590 -59.688529 -5.969708 22.338197 -52.855008 -10.208503 0.000000 0.000000 0.000000 -0.407698 18.008089 7.220148 31.639806 23.877963 2.600677 -5.569535 24.401306 0.043333 0.000000 0.000000 0.000000 
-0.043334 0.960293 -0.110122 7.254009 5.708646 14.342205 5.418814 -1.000652 -14.128604 0.860760 0.144612 -5.560658 -5.176245 3.554231 28.214229 0.000000 0.000000 0.000000 -5.607978 0.985573 -18.051018 -5.226046 0.523900 -0.515373 0.103570 -2.842172 8.704567 0.000000 0.000000 0.000000 8.685980 -2.623841 16.573917 10.141389 -5.470354 4.562160 -6.058413 8.264801 4.672436 25.084366 -20.186727 -2.527464 0.000000 0.000000 0.000000 17.064894 -30.646963 8.307028 -2.764656 -60.365912 -5.705801 20.401173 -51.641608 -8.956229 0.000000 0.000000 0.000000 -0.037969 17.846445 7.256087 31.434013 23.600109 2.494903 -5.776278 24.269399 0.013193 0.000000 0.000000 0.000000 
